<?xml version="1.0" encoding="UTF-8"?><!DOCTYPE svg PUBLIC "-//W3C//DTD SVG 1.1//EN" "http://www.w3.org/Graphics/SVG/1.1/DTD/svg11.dtd"><svg xmlns="http://www.w3.org/2000/svg" xmlns:xlink="http://www.w3.org/1999/xlink"><symbol id="icon-cart" viewBox="0 0 21 18">
<path d="M20.1884 6.85716H16.6377L13.1884 0.380944C12.9855 -8.61287e-06 12.5797 -0.0952351 12.1739 0.0952412C11.7681 0.285717 11.6667 0.66667 11.8696 1.04762L15.0145 6.85716H5.7826L8.92753 1.04762C9.13043 0.66667 8.92754 0.285717 8.6232 0.0952412C8.2174 -0.0952351 7.8116 0.0952295 7.6087 0.380944L4.1594 6.85716H0.811583C0.405785 6.85716 0 7.14286 0 7.61905C0 8 0.304336 8.38094 0.811583 8.38094H1.01449L1.92753 11.2381C1.72463 11.3333 1.62317 11.5238 1.62317 11.8095C1.62317 12.1905 1.92753 12.4762 2.33332 12.4762L4.05797 18H16.942L18.6667 12.4762C19.0725 12.4762 19.3768 12.1905 19.3768 11.8095C19.3768 11.619 19.2754 11.3333 19.0725 11.2381L19.9855 8.38094H20.1884C20.5942 8.38094 21 8.09524 21 7.61905C21 7.14286 20.5942 6.85716 20.1884 6.85716ZM15.6232 16.4762H5.07247L3.85506 12.381H16.942L15.6232 16.4762ZM17.2464 10.9524H3.34782L2.53623 8.28573H18.058L17.2464 10.9524Z"/>
</symbol><symbol id="icon-fb" viewBox="0 0 16 30">
<path d="M12.3023 6.037C13.3012 6.037 14.3001 6.037 14.9994 5.72451C15.399 4.8912 15.5988 3.74541 15.5988 2.59962C15.399 2.59962 15.4989 2.28713 15.399 2.18297C15.399 1.97464 15.0993 1.97464 15.0993 1.76631C14.7996 1.55799 14.5998 1.34966 14.4 1.14134C13.7008 0.933013 13.0015 0.82885 12.2024 0.620524C11.4032 0.620524 10.3044 0.516359 9.60515 0.724685C7.00792 0.724685 5.60941 1.87048 4.3108 3.2246C4.3108 3.32876 4.31079 3.43292 4.2109 3.43292C3.61154 5.09953 4.11101 7.18279 4.01112 9.26605C4.11101 9.6827 4.11101 10.3077 4.2109 10.7243C3.21197 11.0368 2.01325 11.141 0.814525 11.2451C0.514845 11.5576 0.614738 12.3909 0.614738 13.0159C0.714631 13.6409 0.914419 14.1617 1.01431 14.6825C1.2141 14.8908 1.61367 15.0992 1.81346 15.2033C1.91335 15.2033 1.91335 15.3075 1.91335 15.3075C2.41282 15.62 3.41175 15.3075 4.2109 15.4117C4.11101 17.4949 4.51058 19.474 4.2109 21.3489C4.2109 21.6614 4.51058 21.7656 4.41069 22.1822C4.41069 23.2239 4.3108 24.2655 4.61048 24.9946C4.3108 25.5155 4.11101 26.0363 4.2109 26.8696C4.31079 26.8696 4.3108 27.0779 4.3108 27.1821C4.2109 27.7029 4.91016 27.3904 4.81026 27.9112C5.01005 28.432 4.41069 28.1195 4.41069 28.432V29.3695C4.91016 29.682 5.90909 29.5778 6.70824 29.5778C7.60728 29.1612 8.9059 29.057 9.50526 28.3279C10.0047 28.5362 10.4043 28.3279 10.704 28.1195C10.704 27.807 11.0037 27.807 10.9038 27.3904C10.9038 27.0779 10.704 26.8696 10.8039 26.4529V23.4322C10.6041 21.0365 10.8039 18.3282 10.5042 15.9325C11.4032 15.8283 12.4022 15.8283 13.1014 15.5158C13.501 14.995 13.501 14.2659 13.6009 13.5367C13.8007 13.3284 13.8007 12.9117 13.8007 12.4951C14.0005 12.2868 13.9006 11.766 13.9006 11.3493C13.8007 10.7243 13.7008 9.99519 13.1014 9.89103C12.2024 9.6827 11.1035 10.516 10.1046 10.2035C10.1046 9.05772 9.80494 7.80776 10.1046 6.66197C10.9038 6.45365 11.603 6.24532 12.3023 6.037ZM8.50632 11.0368C8.60622 11.3493 8.806 11.5576 8.9059 11.766C9.00579 11.766 9.10568 11.766 9.10568 11.8701C10.3044 11.9743 11.3033 11.766 12.2024 11.5576C12.2024 12.5993 11.9027 13.3284 11.7029 14.1617C11.0037 14.1617 10.2045 14.4742 9.70504 14.37C9.40536 14.5784 9.30547 14.8908 9.10568 15.0992C9.10568 15.5158 9.20557 15.62 9.10568 15.9325C8.90589 16.0366 9.00579 16.5575 8.9059 16.7658V18.3282C9.00579 18.6407 8.806 18.6407 8.806 18.849V22.4947C8.7061 22.8072 8.9059 22.8072 8.9059 23.0156V26.1404C9.00579 26.4529 8.806 26.9737 9.00579 27.0779C8.9059 27.4946 8.60621 27.0779 8.20664 27.1821C7.70717 27.2862 7.3076 27.5987 6.70824 27.5987C6.80813 27.1821 7.00792 26.9737 7.00792 26.4529C7.00792 26.0363 6.60835 26.1404 6.50845 25.9321C6.70824 25.3071 7.10781 24.7863 7.2077 24.0572C7.40749 23.5364 7.90696 22.7031 7.50739 22.1822C7.00792 22.0781 7.00792 22.4947 6.70824 22.5989C6.70824 22.7031 6.70824 22.8072 6.60834 22.8072C6.60834 22.9114 6.60835 23.0156 6.50845 23.0156C6.50845 23.1197 6.30867 23.1197 6.50845 23.0156C6.50845 22.9114 6.50845 22.8072 6.60834 22.8072C6.60834 22.7031 6.60834 22.5989 6.70824 22.5989V22.2864C7.10781 21.6614 7.40749 21.0365 7.50739 20.2032C7.70717 19.8907 7.80707 19.474 7.90696 19.1615C8.10675 18.849 8.20664 18.2241 8.00685 17.9116C7.50739 17.9116 7.20771 18.2241 7.10781 18.6407C6.80813 18.4324 7.3076 18.2241 7.2077 17.9116C7.3076 17.7032 7.40749 17.2866 7.50739 17.0783C7.70717 16.6616 8.10675 15.7241 7.50739 15.4117C7.10781 15.4117 6.90803 15.62 6.80813 15.9325C6.60835 16.1408 6.40856 16.3491 6.30867 16.6616C5.90909 16.5575 6.20877 15.9325 6.10888 15.5158C6.00898 14.995 6.20877 14.5784 6.10888 14.2659C5.50952 13.4326 4.11101 14.1617 2.91229 13.9534C2.81239 13.6409 2.7125 12.9117 2.81239 12.7034C3.81133 12.5993 5.30973 12.9117 6.00899 12.4951C6.00899 12.3909 6.00898 12.2868 6.10888 12.2868C6.20877 11.5576 5.8092 11.2451 5.60941 10.8285C5.8092 9.99519 5.60941 8.74523 5.7093 7.7036C5.90909 7.59944 6.00898 7.28695 6.20877 7.07863C6.30866 6.037 6.90802 5.51618 6.90802 4.47455C6.60834 4.47455 6.30867 4.37039 6.30867 4.68288C6.00898 4.57872 5.90909 5.20369 5.8092 4.8912C5.7093 4.37039 6.00898 4.26622 6.10888 3.84957C6.70824 3.43292 7.3076 3.01627 8.00685 2.59962C9.70504 2.3913 12.602 2.18297 14.1004 2.80794C14.2002 3.43292 13.8007 3.74541 13.9006 4.37039H12.4022C11.3033 4.57871 10.4043 5.09953 9.40536 5.41202C9.20558 5.51618 9.10568 5.72451 8.9059 5.82867C8.9059 6.24532 8.70611 6.45365 8.60621 6.8703C8.30653 8.32858 8.50632 9.57854 8.50632 11.0368Z"/>
</symbol><symbol id="icon-htmlacademy" viewBox="0 0 28 35">
<path d="M13.9689 0.0444336H13.8689L0.368896 1.44443V26.1444L13.8689 34.1444L27.2689 26.1444V1.44443L13.9689 0.0444336ZM25.3689 12.1444L13.8689 5.34443V5.24443H13.7689L13.6689 5.14443V5.24443L2.2689 12.1444V3.14443L13.7689 1.94443L25.3689 3.14443V12.1444ZM13.7689 6.84443L25.2689 13.5444L20.7689 16.1444L13.6689 11.9444V13.3444L19.5689 16.8444L18.6689 17.3444L13.6689 14.3444V15.7444L17.4689 18.0444L16.6689 18.5444L13.6689 16.7444V18.1444L15.5689 19.2444L13.7689 20.3444L2.3689 13.6444L13.7689 6.84443ZM2.2689 15.1444L13.6689 21.9444V22.9444L5.7689 18.2444V19.6444L13.7689 24.4444V25.5444L5.7689 20.8444V22.2444L13.7689 27.0444L21.8689 22.1444V16.9444L25.2689 14.9444V24.9444L13.7689 31.8444L2.2689 25.0444V15.1444Z"/>
</symbol><symbol id="icon-insta" viewBox="0 0 23 22">
<path d="M22.5987 12.6944C22.5987 10.2944 22.2987 7.89439 22.2987 5.59439C22.2987 4.79439 22.1987 4.09439 22.0987 3.29439C21.9987 2.99439 21.9987 2.59439 21.8987 2.19439C21.5987 1.99439 21.6987 1.59439 21.3987 1.39439C20.9987 1.19439 20.1987 1.29439 19.6987 1.19439C18.9987 1.19439 18.3987 1.09438 17.7987 0.994385C15.8987 0.894385 13.7987 0.894386 11.7987 0.894386C9.7987 0.894386 7.79871 0.794385 6.0987 0.494385H3.8987C3.7987 0.494385 3.7987 0.594387 3.6987 0.594387C3.0987 0.594387 2.5987 0.794386 2.0987 0.894386C1.8987 0.994386 1.6987 1.09439 1.3987 1.19439C1.2987 1.39439 0.898702 1.29439 0.798702 1.59439C0.598702 1.79439 0.998702 2.09439 0.798702 2.19439V3.09439C0.998702 3.19439 0.798704 3.69439 0.898704 3.89439V4.89439C0.898704 6.19439 0.998703 7.29439 0.998703 8.59439C1.4987 11.3944 1.3987 15.0944 1.0987 17.9944C1.2987 18.5944 1.4987 19.0944 1.5987 19.6944C1.8987 20.1944 1.8987 20.7944 2.2987 21.1944C2.7987 21.3944 3.4987 21.3944 4.1987 21.3944C4.5987 21.4944 4.8987 21.6944 5.2987 21.6944C8.0987 21.4944 10.7987 21.4944 13.6987 21.4944C16.3987 21.6944 19.4987 21.6944 21.9987 21.2944C22.1987 21.1944 22.0987 20.7944 22.1987 20.4944C22.0987 20.0944 22.3987 20.0944 22.3987 19.6944C22.5987 17.5944 22.5987 15.1944 22.5987 12.6944ZM9.59871 6.49438C10.3987 6.29438 11.0987 6.19439 11.9987 6.19439C12.6987 6.29439 13.2987 6.49439 13.8987 6.69439C13.9987 6.89439 13.6987 7.19439 14.0987 7.39439C14.1987 7.39439 14.1987 7.39438 14.2987 7.49438C14.6987 7.49438 15.0987 7.69439 15.3987 7.89439C15.8987 7.99439 15.8987 8.39439 16.4987 8.29439C16.3987 8.49439 16.3987 8.79439 16.3987 9.09439C16.6987 10.2944 16.8987 11.8944 16.6987 13.3944C16.4987 13.5944 16.4987 13.7944 16.3987 14.0944C16.0987 14.3944 15.8987 14.8944 15.5987 15.1944C15.4987 15.3944 15.2987 15.5944 15.0987 15.6944C14.9987 15.8944 14.8987 16.1944 14.5987 16.1944C14.2987 16.3944 13.9987 16.1944 13.7987 16.0944C13.3987 16.2944 12.8987 16.3944 12.5987 16.6944C11.7987 16.5944 10.9987 16.4944 10.1987 16.3944C9.9987 16.2944 9.6987 16.0944 9.3987 16.0944C9.1987 15.8944 8.8987 15.6944 8.5987 15.5944C8.4987 15.4944 8.2987 15.4944 8.0987 15.3944C7.89871 15.3944 7.89871 15.1944 7.5987 15.1944C7.4987 14.7944 7.1987 14.5944 7.0987 14.0944C6.89871 13.7944 6.7987 13.2944 6.5987 12.8944C6.5987 11.4944 6.6987 10.1944 6.9987 9.09439C7.2987 8.49439 7.7987 7.99439 8.0987 7.39439C8.2987 7.39439 8.4987 7.29439 8.4987 7.09439C8.7987 7.19439 8.8987 6.99438 9.1987 6.99438C9.3987 6.99438 9.39871 6.69438 9.59871 6.49438ZM7.8987 3.79439C7.7987 3.49439 7.7987 3.09439 7.7987 2.69439C7.7987 2.39439 8.0987 2.39439 8.0987 2.19439C8.0987 2.09439 7.9987 2.09439 7.8987 2.09439C7.9987 1.99439 8.5987 1.99439 8.6987 2.09439C8.7987 2.59439 8.2987 2.59439 8.1987 2.79439C8.1987 2.99439 8.4987 2.79439 8.6987 2.89439C8.6987 3.79439 8.5987 4.39439 8.6987 5.09439H8.1987C8.1987 5.29439 8.3987 5.29439 8.6987 5.29439C8.5987 5.59439 8.7987 5.69439 8.7987 5.89439C8.5987 6.09439 8.0987 5.89438 7.6987 5.99438C7.6987 5.39438 7.9987 4.59439 7.8987 3.79439ZM7.1987 2.19439C7.2987 2.19439 7.2987 2.19439 7.3987 2.29439C7.5987 2.59439 7.3987 2.99439 7.2987 3.19439C7.0987 2.99439 7.2987 2.49439 7.1987 2.19439ZM7.3987 3.99438C7.2987 3.89438 7.1987 3.79438 7.1987 3.49438C7.3987 3.59438 7.3987 3.79438 7.3987 3.99438ZM7.3987 5.39439C7.2987 5.49439 7.2987 5.39439 7.2987 5.19439C7.3987 5.09439 7.3987 5.29439 7.3987 5.39439ZM7.1987 5.59439C7.3987 5.59439 7.2987 5.79439 7.3987 5.79439C7.3987 5.99439 7.0987 5.99439 6.9987 5.89439C7.0987 5.79439 7.1987 5.69439 7.1987 5.59439ZM4.8987 4.39439C4.8987 4.29439 4.8987 4.19439 4.7987 4.19439C4.6987 3.49439 4.8987 2.79439 4.7987 2.19439C5.0987 1.99439 5.5987 2.19439 5.8987 2.09439V3.19439C5.7987 3.29439 5.6987 3.29439 5.4987 3.29439C5.3987 3.59439 5.7987 3.39439 5.8987 3.59439C5.8987 4.49439 5.7987 5.39438 6.0987 5.99438C5.4987 5.89438 5.1987 6.09439 4.6987 6.09439C4.7987 5.49439 4.6987 4.69438 5.1987 4.49438C5.1987 4.39438 4.8987 4.49439 4.8987 4.39439ZM4.3987 4.39439C4.1987 4.39439 4.1987 3.89439 4.2987 3.79439C4.5987 3.79439 4.4987 4.29439 4.3987 4.39439ZM4.1987 5.39439C4.2987 5.09439 4.1987 5.09439 4.2987 4.69439C4.4987 4.69439 4.4987 5.49439 4.1987 5.39439ZM4.3987 3.29439C4.0987 3.39439 4.0987 2.99439 4.1987 2.89439C4.4987 2.89439 4.5987 3.19439 4.3987 3.29439ZM4.3987 2.19439C4.3987 2.39439 4.2987 2.39438 4.2987 2.49438C4.0987 2.49438 4.1987 2.29439 4.0987 2.29439C4.1987 2.19439 4.2987 2.19439 4.3987 2.19439ZM4.1987 5.89439C4.2987 5.89439 4.2987 6.19439 4.0987 6.09439C4.1987 6.09439 4.1987 5.99439 4.1987 5.89439ZM3.4987 2.19439C3.4987 2.49439 3.0987 2.49439 3.0987 2.19439H3.4987ZM2.4987 2.29439C2.4987 2.49439 2.1987 2.49439 2.0987 2.69439C1.8987 2.49439 2.1987 2.19439 2.4987 2.29439ZM2.0987 2.99438C2.2987 2.79438 2.5987 2.59439 2.7987 2.39439C2.7987 2.29439 2.8987 2.29439 2.8987 2.19439H3.0987C3.1987 2.59439 2.7987 2.49439 2.7987 2.69439C2.7987 2.79439 2.6987 2.79439 2.6987 2.89439C2.6987 3.19439 2.7987 3.49439 2.7987 3.89439C2.4987 3.89439 2.4987 4.19439 2.1987 4.09439C2.1987 3.69439 1.9987 3.49438 2.0987 2.99438ZM2.1987 6.29439V4.69439C2.3987 4.49439 2.5987 4.29439 2.7987 4.19439C3.0987 4.69439 2.9987 5.59439 3.2987 6.09439C2.8987 6.19439 2.4987 6.19439 2.1987 6.29439ZM20.3987 17.3944C20.2987 18.3944 20.1987 19.3944 19.9987 20.1944C17.0987 20.2944 13.9987 20.1944 11.0987 20.3944C10.8987 20.3944 10.7987 20.3944 10.8987 20.1944C10.5987 20.1944 10.5987 20.3944 10.3987 20.3944C10.5987 20.0944 10.7987 19.4944 10.5987 19.0944C9.79871 19.0944 9.7987 19.8944 9.4987 20.3944C8.7987 20.2944 8.3987 20.4944 7.6987 20.4944C7.8987 19.7944 8.39871 19.4944 8.5987 18.7944C8.1987 18.2944 7.5987 18.8944 7.3987 19.2944C7.1987 19.7944 6.7987 20.0944 6.5987 20.5944H5.5987C5.7987 20.0944 6.0987 19.6944 6.3987 19.1944C6.5987 18.6944 6.9987 18.4944 7.0987 17.7944C6.89871 17.4944 6.6987 17.7944 6.3987 17.7944C6.2987 17.9944 6.0987 18.0944 5.9987 18.2944C5.7987 18.6944 5.4987 18.9944 5.2987 19.3944C5.0987 19.5944 4.9987 19.3944 4.7987 19.5944C4.3987 19.8944 4.1987 20.2944 3.7987 20.5944C3.5987 20.4944 3.7987 20.1944 3.9987 20.1944C3.9987 19.9944 3.8987 19.6944 4.0987 19.5944C4.1987 19.1944 4.2987 18.9944 4.4987 18.6944C4.5987 17.9944 4.9987 17.4944 5.1987 16.7944C4.5987 16.8944 4.4987 17.3944 4.1987 17.7944C3.9987 18.1944 3.6987 18.5944 3.4987 19.0944C3.2987 18.9944 3.4987 18.4944 3.3987 18.2944C3.4987 17.6944 3.6987 17.1944 3.7987 16.5944C3.8987 16.3944 3.9987 16.0944 3.9987 15.7944C4.1987 15.5944 3.9987 15.1944 3.8987 14.9944C3.6987 14.9944 3.4987 15.0944 3.3987 15.2944C3.1987 15.2944 3.1987 15.7944 3.0987 15.5944C3.0987 12.9944 2.5987 10.7944 2.5987 8.19439C2.5987 7.89439 2.3987 7.79438 2.3987 7.49438C3.9987 7.49438 5.4987 7.59439 7.1987 7.69439C7.0987 7.79439 6.9987 7.99439 6.8987 8.09439C6.7987 8.19439 6.6987 8.29439 6.4987 8.39439C5.8987 10.0944 5.4987 12.3944 5.8987 14.5944C6.0987 15.1944 6.4987 15.5944 6.8987 15.9944C7.7987 16.4944 8.4987 17.0944 9.3987 17.6944C11.0987 18.0944 13.1987 18.0944 14.8987 17.6944C15.0987 17.5944 15.3987 17.4944 15.5987 17.2944C16.9987 16.0944 18.3987 14.7944 18.5987 12.3944V10.9944C18.3987 9.39438 17.8987 8.09439 16.8987 7.39439C17.1987 7.19439 17.9987 7.39438 18.5987 7.49438C18.7987 7.49438 18.9987 7.49438 19.2987 7.49438C19.6987 7.49438 20.1987 7.39438 20.6987 7.49438C20.7987 7.69438 20.7987 7.99439 20.8987 8.29439C20.7987 9.99439 20.6987 11.5944 20.6987 13.3944C20.7987 13.8944 20.7987 14.3944 20.8987 14.7944C20.6987 15.5944 20.5987 16.4944 20.3987 17.3944ZM20.7987 6.19439C20.1987 6.09439 19.5987 5.89439 18.8987 5.79439C18.9987 5.49439 19.6987 5.79439 19.8987 5.59439C20.2987 5.39439 20.1987 4.69439 20.1987 4.09439C20.1987 3.79439 20.2987 3.49438 20.2987 2.99438C19.8987 1.99438 18.4987 2.59438 17.3987 2.49438C17.1987 3.19438 16.8987 4.29439 17.0987 5.19439C17.2987 5.69439 18.0987 5.49439 18.5987 5.69439C18.4987 5.99439 17.8987 5.79439 17.5987 5.79439C17.2987 5.69439 16.8987 5.69439 16.5987 5.59439C14.2987 5.69439 12.2987 5.59439 10.0987 5.79439C10.1987 4.59439 10.1987 3.29439 9.9987 2.19439H13.0987C12.7987 2.59439 12.1987 2.69438 11.7987 2.99438C11.3987 3.19438 10.8987 3.49439 10.6987 3.89439C10.8987 3.99439 11.1987 3.69438 11.4987 3.49438C11.8987 3.39438 11.9987 3.09438 12.2987 2.99438C12.6987 2.59438 13.3987 2.39439 13.9987 2.09439C14.3987 2.09439 14.6987 2.09439 14.9987 2.19439C16.2987 2.19439 17.4987 2.29439 18.7987 2.29439C19.3987 2.39439 20.2987 2.39439 20.7987 2.59439C20.8987 2.89439 20.9987 3.19438 21.0987 3.49438C20.9987 4.49438 20.7987 5.29439 20.7987 6.19439ZM14.8987 2.49438C14.9987 2.39438 14.8987 2.39438 14.8987 2.49438V2.49438ZM14.8987 2.49438C14.3987 2.69438 13.8987 2.79439 13.4987 3.19439C13.9987 2.99439 14.5987 2.89438 14.8987 2.49438ZM15.9987 3.09439C16.0987 2.99439 15.9987 2.99439 15.9987 3.09439V3.09439ZM14.1987 3.99438C14.8987 3.79438 15.3987 3.39439 15.8987 3.09439C15.4987 3.09439 15.2987 3.39438 14.8987 3.49438C14.7987 3.69438 14.3987 3.69438 14.1987 3.99438ZM13.4987 3.19439C13.3987 3.19439 13.5987 3.29439 13.4987 3.19439V3.19439ZM12.8987 3.79439C12.9987 3.69439 12.8987 3.69439 12.8987 3.79439V3.79439ZM12.7987 3.89439C12.8987 3.89439 12.8987 3.79439 12.7987 3.89439C12.7987 3.79439 12.7987 3.79439 12.7987 3.89439ZM12.6987 3.89439C12.7987 3.89439 12.7987 3.89439 12.6987 3.89439C12.6987 3.79439 12.6987 3.89439 12.6987 3.89439ZM11.8987 4.49438C12.1987 4.39438 12.4987 4.19439 12.6987 3.89439C12.3987 4.09439 12.0987 4.29438 11.8987 4.49438ZM14.1987 5.49438C14.6987 5.49438 14.8987 5.09438 15.3987 4.99438C15.6987 4.69438 16.1987 4.59439 16.3987 4.19439C15.7987 4.19439 15.5987 4.59439 15.1987 4.69439C14.8987 5.09439 14.3987 5.19438 14.1987 5.49438ZM11.8987 4.49438C11.5987 4.49438 11.8987 4.79438 11.8987 4.49438V4.49438ZM11.2987 4.89439C11.3987 4.89439 11.4987 4.89439 11.2987 4.89439C11.3987 4.79439 11.2987 4.89439 11.2987 4.89439ZM14.1987 5.49438C13.9987 5.59438 14.1987 5.59438 14.1987 5.49438V5.49438ZM12.9987 7.29439C12.7987 7.09439 12.2987 7.09439 11.9987 6.89439C11.2987 6.89439 10.7987 6.99439 10.2987 7.09439C9.9987 7.29439 9.6987 7.39439 9.3987 7.59439C9.0987 7.79439 8.9987 7.99439 8.5987 8.09439C8.39871 8.29439 8.1987 8.59439 7.8987 8.69439C7.8987 8.89439 7.6987 8.99439 7.5987 9.09439C7.4987 9.19439 7.4987 9.39438 7.3987 9.49438C7.3987 9.59439 7.3987 9.79439 7.2987 9.79439C7.3987 11.2944 7.5987 12.6944 7.9987 13.9944C8.2987 14.5944 8.9987 14.7944 9.3987 15.2944C9.9987 15.5944 10.6987 15.6944 11.4987 15.7944C11.7987 15.6944 12.0987 15.6944 12.3987 15.6944C13.5987 15.4944 14.4987 14.9944 15.1987 14.2944C15.2987 13.9944 15.4987 13.7944 15.6987 13.5944C15.3987 12.8944 15.9987 12.4944 16.1987 11.9944C16.1987 10.6944 15.9987 9.49439 15.5987 8.59439C15.2987 7.99439 14.6987 7.79438 14.1987 7.49438C14.0987 7.49438 13.9987 7.49439 13.9987 7.39439C13.7987 7.29439 13.2987 7.19439 12.9987 7.29439ZM9.59871 11.6944C9.4987 11.5944 9.4987 11.4944 9.3987 11.2944C9.6987 11.1944 9.59871 11.4944 9.59871 11.6944ZM9.6987 11.9944C9.6987 11.8944 9.7987 11.9944 9.6987 11.9944C9.6987 12.1944 9.6987 12.0944 9.6987 11.9944ZM10.0987 9.89439C10.0987 9.79439 10.1987 9.89439 10.0987 9.89439C10.1987 9.99439 10.0987 9.99439 10.0987 9.89439ZM11.7987 7.79439C11.5987 8.09439 11.7987 8.39439 11.8987 8.59439C11.5987 8.59439 11.2987 7.79439 11.7987 7.79439ZM12.1987 11.6944C12.0987 11.6944 12.1987 11.6944 12.1987 11.6944C12.2987 11.6944 12.1987 11.7944 12.1987 11.6944ZM12.8987 14.5944C12.8987 14.4944 12.9987 14.5944 13.0987 14.5944C13.0987 14.6944 12.8987 14.6944 12.8987 14.5944ZM15.0987 12.0944C14.8987 11.9944 14.9987 12.2944 14.6987 12.2944C14.7987 12.0944 14.7987 11.9944 14.8987 11.7944C15.0987 11.7944 15.1987 11.8944 15.0987 12.0944ZM13.9987 8.29439C14.1987 8.39439 14.3987 8.49439 14.5987 8.69439C14.6987 8.89439 14.7987 9.09439 14.9987 9.19439C15.0987 9.99439 15.1987 10.6944 15.1987 11.5944C14.8987 11.6944 14.7987 11.8944 14.4987 11.9944C13.6987 11.9944 13.0987 11.7944 12.5987 11.4944C12.3987 11.1944 12.1987 10.9944 12.0987 10.6944V9.59439C12.2987 9.39439 12.3987 9.19438 12.5987 8.99438C12.7987 8.89438 13.0987 8.79439 13.0987 8.39439C13.0987 8.29439 12.9987 8.29439 12.9987 8.19439C13.1987 8.19439 13.1987 8.39439 13.3987 8.39439C13.5987 8.39439 13.6987 8.19439 13.9987 8.29439Z"/>
</symbol><symbol id="icon-logo"><path d="M4.5473 26.3186c0-3.5-.3-6.9-.4-10.4v-1c0 .1.1.2.1.4.5 1.4 1.1 2.7 1.8 3.9.7 1.2 1.1 2.6 1.5 3.9-.2.2-.3.4-.2.6 0 .2.1.2.2.3.5.5 1.5.2 2.1 0 .2-.1.5-.2.7-.4.3-.2.7-.6.6-1 0-.1 0-.2-.1-.2.4-1.1.6-2.2.8-3.3.2-1.2.7-2.3 1.1-3.5 0 .5.1 1 .1 1.6.2 2.1 0 4.3 0 6.4 0 .7 0 1.4.2 2.1.1.3.3 1.5.2 1.6-.5.5-.4 1.1.3 1.2.8.2 1.8-.1 2.3-.6 1-.9.5-2.4.3-3.6-.4-2 .1-4.2 0-6.2-.1-2.3-.4-4.5-.4-6.8 0-1.8.3-3.7-.3-5.5 0-.2.1-.4.1-.6.2-.9-2.8-.4-3.2.4-.3.2-.4.5-.3.8 0 .1.1.1.1.2-.6 2.7-1.3 5.3-2.2 7.9-.3 1-.7 2-1.1 3-.5-.9-1-1.9-1.4-2.8-1.2-2.9-2.2-5.8-3.6-8.6.2-1.3-2.7-1.2-3.3 0-.7 1.4-.6 2.9-.4 4.4.3 1.7.3 3.4.3 5.1 0 3.3.3 6.7.4 10-.3.3-.4.7-.1 1.2.1.2.3.3.5.5 1.2.7 3.3.2 3.3-1ZM22.7473 7.9186c-.1-.6-3.4.1-3.3.9.3 1.8.2 3.6.1 5.4 0 1.7.4 3.3.6 5 .2 1.7-.1 3.5.1 5.2.1.8.6 2.3.1 3-.4.4 1.2.3 1.3.3.6-.1 1.5-.3 1.9-.9.6-.7.2-2 0-2.8-.3-1.7-.1-3.5-.2-5.3-.1-1.7-.6-3.3-.7-4.9.3-2 .4-3.9.1-5.9ZM25.9473 14.6186c.9 2.5 4.6 1.3 6.6 1.5 3.2.2 2.3 4.6 2.3 6.6 0 1.1 1 2.9.2 3.8-.5.6-1.7.6-2.4.6-.7.1-1.9.3-2.3-.4-.8-1.2.1-3.2-.1-4.6-.1-.8-3.4-.1-3.3.9.3 2.2-1.2 5.2 2 5.6 2.1.2 4.4-.1 6.3-.8 1-.3 1.9-.8 2.7-1.5.9-.8.6-2 .4-3-.6-2.5.6-5.3-1-7.5-1.7-2.3-5-.7-7.2-1.3-1.2-.2-1.2-1.8-1.2-2.8 0-1.2-.1-2.3-.2-3.5-.1-.9 0-1.8.6-2.4.1-.1.7-.3.7-.3.3-.1.6-.1.9-.1 1.3-.1 3.9.2 3.4 2.1-.2.9 3 .4 3.3-.5 1-3.9-6.1-3.1-8.2-2.6-1.9.5-3.9 1.6-4 3.7-.1 1 .2 2 .3 3 0 1.2-.3 2.4.2 3.5ZM40.3473 16.5186c-.1 1.8-.2 3.6-.2 5.4 0 .9.1 1.8.3 2.8.1.8.4 2 .2 2.8-.2.6 3 .2 3.3-.6.5-1.5-.2-3.4-.3-4.9-.1-1.5 0-2.9.1-4.4 1.7-.1 3.4-.2 5.1 0 .1 1.2.2 2.3.3 3.5.1 1 .2 1.9.2 2.9 0 .9.1 2.1-.2 2.9-.7 1.7 2.7 1.6 3.1.3.6-1.6.4-3.5.3-5.2-.3-2.2-.6-4.2-.6-6.3-.1-3.2-.6-6.3-.6-9.5 0-1.7-3.3-1.1-3.3.3 0 3 .4 6 .6 9.1v.2c-1.6 0-3.3.1-4.9.2.2-3.9-.5-7.8-.4-11.7 0-.5-3.3-.1-3.3.9-.2 3.8.4 7.5.3 11.3ZM54.4473 21.8186c-.3.3-.2.4 0 .5 0 1.5 0 2.9-.2 4.4-.4.6.4 1 .9 1h.1c.6 0 2.2-.3 2.3-1.1.2-1.8.2-3.5.2-5.3 1.3-1.4 2.4-3.1 3.4-4.7.6 1.2 1.2 2.5 1.7 3.9.7 2.3 1.9 4.4 2.6 6.8.5 1.5 3.8.6 3.3-.9-.7-2.3-1.9-4.5-2.6-6.8-.8-2.3-2-4.4-3-6.6.8-1.6 1.7-3.3 2.5-5 .7-1.5 1.2-3.2 2.6-4.3.5-.4.5-.8-.2-.8-.7-.1-1.7.2-2.3.6-1.3 1-2 2.2-2.7 3.6-.8 1.7-1.6 3.4-2.5 5.1-.1.1-.1.2-.2.4-.4.3-.7.6-.5 1.1-.7 1.3-1.3 2.6-2.1 3.9-.3-4.7-.8-9.3-1-14 0-1.1-3.3-.4-3.3.9.2 5.7 1 11.5 1 17.3ZM85.9473 15.6186c-.2-.7-1.2-.7-1.9-.6v-.8c-.1-2.2-.1-4.5-.3-6.8-.2-2.1-1.3-2.8-3.3-2.7-2 .1-4.4.4-6.3 1.2-2.2.9-3.4 2.5-3.8 4.8-.5 2.5.2 5.2.3 7.8.1 3 .1 5.9.1 8.9 0 .5 3.3 0 3.3-.9v-7c0-.7 0-1.4-.1-2.1 1.2-.5 3.1 0 4.3.1.9.1 1.8-.1 2.7-.2 0 1.9.1 3.9.2 5.9 0 1 .4 3-.3 3.8-.4.4 1.2.3 1.3.3.7-.1 1.5-.3 1.9-.9.8-.9.4-3.2.3-4.3-.1-1.6-.1-3.2-.1-4.8.8-.4 1.9-1 1.7-1.7Zm-6.6-.2c-1.9 0-3.8-.3-5.7 0-.1-1.1-.2-2.1-.3-3.2-.1-2 .1-4.7 1.9-5.9.5-.3 1.4-.3 2-.4.8-.1 1.6-.3 2.4.2 1 .7.8 3.1.8 4.1 0 1.7.2 3.4.3 5.1-.5.1-1 .1-1.4.1ZM19.1473 4.1186c0 .2 0 .4.1.5v.4c.1.2.2.3.4.4.3.2.7.2 1.1.2.4 0 .9-.2 1.2-.4l.2-.2c.4-.3.8-.7.6-1.1-.4-.9-.4-1.9-.3-2.9 0-.8-.8-1.1-1.5-1-.6.1-1.8.5-1.8 1.3s-.1 1.7.1 2.5c-.1.1-.1.2-.1.3ZM80.6473 33.3186c-1.6-.6-3.3-.6-4.9-.8-1.6-.2-3.2-.4-4.9-.6-1.6.1-3.3 0-5 .1l-4.9.3c-6.5.3-13 .3-19.5.1-6.5-.1-13-.5-19.6-.5-3.3 0-6.6.1-9.9.3-1.6.3-3.2.5-4.9.9-1.6.4-3.1.9-4.8 1 1.6.4 3.3.3 5 .3 1.6 0 3.2.1 4.9.2 3.2-.2 6.5-.2 9.7-.3 6.5 0 13 .3 19.6.5 6.5.1 13.1.2 19.7-.1l4.9-.3c1.6-.1 3.2-.1 4.8-.1 1.6-.1 3.3-.3 4.9-.5 1.7-.2 3.2-.6 4.9-.5h.1v-.6c0 .4 0 .5-.1.6Z"/></symbol><symbol id="icon-mail" viewBox="0 0 32 21">
<path d="M28 0H4C1.8 0 0 1.8 0 4V17C0 19.2 1.8 21 4 21H28C30.2 21 32 19.2 32 17V4C32 1.8 30.2 0 28 0ZM2 5.3L9 10.6L2 15.9V5.3ZM30 17C30 18.1 29.1 19 28 19H4C2.9 19 2 18.1 2 17L9.8 11.1L14.2 14.4C14.7 14.8 15.4 15 16 15C16.6 15 17.3 14.8 17.8 14.4L22.2 11.1L30 17ZM30 15.8L23 10.5L30 5.2V15.8ZM17.2 13.6C16.8 13.9 16.4 14 16 14C15.6 14 15.1 13.9 14.8 13.6L10.7 10.5L9.9 9.9L2 4C2 2.9 2.9 2 4 2H28C29.1 2 30 2.9 30 4L17.2 13.6Z"/>
</symbol><symbol id="icon-phone" viewBox="0 0 25 24">
<g>
<path d="M17.4395 24C17.0363 24 16.7339 24 16.3306 24C11.3911 23.4074 7.7621 21.1358 5.14113 18.2717C2.52016 15.4075 0.403226 11.7532 0 6.7162C0 6.22237 0 5.82731 0 5.33349C0.100806 4.44461 0.504032 3.85202 1.10887 3.25943C1.71371 2.56808 2.72177 1.77796 3.62903 1.6792C4.33468 1.6792 5.44355 2.17302 5.84677 2.76561C6.25 3.25943 6.45161 4.34584 6.65323 5.13596C6.85484 6.02484 7.25806 7.11125 7.15726 7.90137C6.95565 9.08655 5.34274 9.58037 4.93952 10.4693C6.55242 14.1235 9.07258 16.889 12.5 18.6667C13.3065 18.1729 14.1129 16.7902 15.3226 16.7902C15.7258 16.7902 16.3306 16.9877 16.7339 17.0865C17.2379 17.1852 17.6411 17.3828 18.0444 17.5803C18.75 17.8766 20.0605 18.1729 20.4637 18.7655C20.8669 19.3581 21.1694 20.3457 21.0685 20.9383C20.7661 22.2222 18.6492 23.6049 17.4395 24Z"/>
<path d="M12.6008 1.48147C18.5484 1.48147 23.4879 6.22217 23.4879 12.1481H25C25 5.43205 19.4557 0 12.6008 0V1.48147Z"/>
<path d="M12.6008 9.18506V10.7653C13.4073 10.7653 14.0121 11.3579 14.0121 12.148H15.625C15.625 10.5678 14.3145 9.18506 12.6008 9.18506Z"/>
<path d="M12.6008 6.12356C15.9274 6.12356 18.75 8.79021 18.75 12.1482H20.3629C20.3629 8.00009 16.9355 4.64209 12.7016 4.64209V6.12356H12.6008Z"/>
</g>
</symbol><symbol id="icon-search" viewBox="0 0 18 18">
<path d="M17.6932 16.0568L14.2159 12.5795C15.2386 11.25 15.75 9.61364 15.75 7.875C15.75 3.47727 12.2727 0 7.875 0C3.47727 0 0 3.47727 0 7.875C0 12.2727 3.47727 15.75 7.875 15.75C9.61364 15.75 11.25 15.1364 12.5795 14.2159L16.0568 17.6932C16.2614 17.8977 16.4659 18 16.875 18C17.4886 18 18 17.4886 18 16.875C18 16.6705 17.8977 16.3636 17.6932 16.0568ZM2.25 7.875C2.25 4.80682 4.80682 2.25 7.875 2.25C10.9432 2.25 13.5 4.80682 13.5 7.875C13.5 10.9432 10.9432 13.5 7.875 13.5C4.80682 13.5 2.25 10.9432 2.25 7.875Z"/>
</symbol><symbol id="icon-twitter" viewBox="0 0 25 20">
<path d="M24.2248 4.39458C24.0248 3.99458 23.3248 4.09458 22.8248 3.99458H21.7248C21.8248 3.59458 22.0248 3.39458 22.2248 2.99458C22.3248 2.59458 22.5248 2.29458 22.4248 1.69458C22.5248 1.49458 22.6248 1.29458 22.7248 1.09458C22.8248 0.994578 22.9248 0.594581 22.8248 0.394581C22.7248 0.194581 22.5248 0.19458 22.2248 0.19458C22.1248 0.19458 22.0248 0.294579 22.0248 0.294579C21.6248 0.694579 21.2248 1.29458 20.7248 1.69458H20.6248C20.5248 1.69458 20.6248 1.69458 20.5248 1.79458C20.4248 1.89458 20.2248 1.99458 20.1248 1.99458C19.8248 2.19458 19.6248 2.39458 19.2248 2.49458C18.7248 2.29458 18.0248 2.19458 17.3248 2.09458C16.1248 2.19458 15.0248 2.29458 14.3248 2.79458C13.4248 3.09458 12.8248 3.79458 12.2248 4.39458C12.2248 4.69458 11.9248 4.79458 11.8248 5.09458C11.8248 5.09458 11.8248 5.19458 11.7248 5.19458C11.7248 5.39458 11.6248 5.49458 11.6248 5.69458C11.6248 5.79458 11.8248 6.09458 11.6248 6.19458C10.8248 6.09458 10.1248 5.59458 9.52477 5.19458C8.82477 4.79458 8.02477 4.59458 7.42477 4.09458C6.72477 3.79458 6.12477 3.29458 5.62477 2.79458C5.42477 2.49458 5.12477 2.29458 4.92477 1.89458C4.52477 1.69458 4.72477 0.994579 4.22477 0.994579C3.92477 0.994579 3.92477 1.19458 3.82477 1.39458C3.72477 1.59458 3.42477 1.59458 3.42477 1.89458C3.42477 1.89458 3.42477 1.99458 3.32477 1.99458C3.12477 3.09458 2.82477 3.99458 2.82477 5.29458C2.92477 5.69458 3.12477 5.99458 3.42477 6.29458C3.02477 6.39458 2.72477 6.49458 2.52477 6.79458C2.42477 7.89458 2.92477 8.39458 3.22477 9.09458C3.32477 9.49458 3.62477 9.79458 3.82477 10.0946C3.82477 10.2946 4.02477 10.3946 4.12477 10.4946C4.12477 10.5946 4.22477 10.5946 4.22477 10.6946C4.22477 10.7946 4.52477 10.8946 4.32477 10.8946C3.92477 10.9946 3.32477 10.9946 3.02477 11.2946C2.92477 11.5946 2.92477 12.0946 3.02477 12.3946C3.02477 12.5946 3.32477 12.6946 3.32477 12.8946C3.82477 13.2946 4.42477 13.5946 4.92477 13.9946C5.52477 14.1946 6.12477 14.2946 6.82477 14.3946C6.72477 14.6946 6.52477 14.9946 6.22477 15.0946C5.42477 15.4946 4.42477 15.5946 3.52477 15.7946C2.92477 15.7946 2.52477 15.9946 1.92477 15.9946C1.62477 16.0946 1.02477 16.0946 0.824768 16.1946C0.724768 16.2946 0.724768 16.2946 0.624768 16.3946C0.524768 16.7946 0.724769 17.0946 1.02477 17.2946C1.02477 17.5946 1.22477 17.5946 1.42477 17.6946C1.52477 17.8946 1.72477 17.9946 1.82477 18.0946C2.32477 18.5946 3.12477 18.8946 3.72477 19.1946C4.52477 19.3946 5.32477 19.5946 6.22477 19.6946C7.12477 19.7946 8.12477 19.7946 9.02477 19.8946H10.0248C10.5248 19.9946 11.2248 19.9946 11.9248 19.9946C12.0248 19.8946 12.2248 19.8946 12.4248 19.8946C12.9248 19.5946 13.6248 19.4946 14.0248 19.1946C14.6248 18.9946 15.0248 18.5946 15.6248 18.2946C16.5248 17.4946 17.5248 16.9946 18.1248 15.8946C18.3248 15.6946 18.5248 15.4946 18.5248 15.1946C18.8248 14.9946 18.9248 14.6946 19.1248 14.4946C19.5248 14.0946 19.8248 13.5946 20.1248 13.0946C20.4248 12.5946 20.7248 11.9946 21.0248 11.4946C21.0248 11.0946 21.3248 10.9946 21.3248 10.5946C21.5248 10.3946 21.5248 9.89458 21.7248 9.69458C21.7248 9.39458 21.7248 9.29458 21.8248 9.09458C21.8248 7.79458 21.8248 6.69458 21.5248 5.69458C22.1248 5.49458 22.7248 5.39458 23.1248 5.09458C23.9248 5.39458 24.4248 4.99458 24.2248 4.39458ZM20.8248 8.39458C20.6248 9.29458 20.2248 9.79458 19.8248 10.3946C19.9248 10.7946 19.7248 10.8946 19.7248 11.2946C19.5248 11.5946 19.4248 11.9946 19.3248 12.2946C19.1248 12.5946 19.0248 12.8946 18.8248 13.1946C18.4248 13.6946 18.0248 14.2946 17.6248 14.7946C17.2248 15.3946 16.7248 15.7946 16.3248 16.2946C15.9248 16.7946 15.4248 17.1946 14.9248 17.5946C14.4248 17.7946 14.0248 17.9946 13.6248 18.2946C13.4248 18.3946 13.1248 18.4946 12.9248 18.5946C12.7248 18.6946 12.4248 18.6946 12.2248 18.8946C11.1248 18.9946 9.92477 19.0946 8.62477 18.9946C7.62477 18.8946 6.52477 18.7946 5.62477 18.5946C4.72477 18.3946 4.12477 17.8946 3.32477 17.5946C3.52477 17.3946 3.92477 17.3946 4.32477 17.3946C4.32477 17.1946 4.72477 17.3946 4.72477 17.2946C5.02477 17.3946 5.02477 17.1946 5.22477 17.1946C5.82477 16.9946 6.42477 16.8946 6.92477 16.5946C7.22477 16.4946 7.32477 16.1946 7.62477 15.9946C7.62477 15.7946 7.72477 15.6946 7.82477 15.5946C7.82477 15.2946 8.02477 15.1946 7.92477 14.7946C8.02477 14.5946 8.22477 14.4946 8.22477 14.0946C8.12477 13.9946 8.12477 13.7946 7.92477 13.6946C7.92477 13.4946 7.52477 13.5946 7.52477 13.4946C7.22477 13.4946 7.12477 13.4946 6.92477 13.3946C6.72477 13.3946 6.42477 13.4946 6.42477 13.2946C5.62477 13.2946 5.12477 12.8946 4.52477 12.5946C4.92477 12.2946 5.52477 12.1946 5.82477 11.8946C6.32477 11.7946 6.92477 11.7946 6.92477 11.1946C6.92477 10.4946 6.12477 10.4946 5.62477 10.3946C4.82477 9.69458 4.42477 8.69458 3.82477 7.89458C4.02477 7.69458 4.42477 7.69458 4.52477 7.49458C5.02477 7.59458 5.02477 7.19458 5.22477 6.99458C5.22477 6.49458 4.92477 6.39458 4.62477 6.19458C4.32477 5.99458 4.12477 5.69458 3.92477 5.49458C3.92477 4.69458 3.92477 3.79458 4.02477 3.09458C4.12477 3.09458 4.12477 3.09458 4.12477 3.19458C4.32477 3.59458 4.72477 3.99458 4.92477 4.39458C5.42477 4.79458 5.82477 5.29458 6.52477 5.49458C7.02477 5.89458 7.62477 6.09458 8.12477 6.49458C8.72477 6.79458 9.32477 7.09458 9.82477 7.39458C10.5248 7.59458 10.9248 8.09458 11.8248 7.99458C12.0248 7.89458 12.2248 7.79458 12.4248 7.69458C12.7248 7.19458 12.3248 6.59458 12.5248 6.09458C12.8248 5.39458 13.3248 5.09458 13.8248 4.59458C14.1248 4.39458 14.4248 4.29458 14.6248 4.09458C14.9248 3.99458 15.3248 3.89458 15.6248 3.69458C16.0248 3.69458 16.3248 3.59458 16.6248 3.59458H17.9248C18.1248 3.69458 18.4248 3.69458 18.6248 3.69458C18.8248 3.79458 19.0248 3.99458 19.3248 4.09458C20.1248 4.79458 20.6248 5.79458 20.7248 7.09458C20.7248 7.39458 20.8248 7.79458 20.8248 8.39458ZM21.1248 2.79458C21.0248 3.09458 20.9248 3.49458 20.5248 3.59458C20.5248 3.49458 20.4248 3.49458 20.4248 3.39458C20.4248 3.19458 20.6248 3.19458 20.7248 3.09458C20.8248 2.99458 20.9248 2.79458 21.1248 2.79458C21.2248 2.79458 21.1248 2.69458 21.1248 2.79458ZM15.6248 5.79458C15.8248 5.89458 15.9248 6.09458 16.1248 6.19458C16.2248 6.39458 16.4248 6.49458 16.7248 6.59458C16.7248 6.39458 17.0248 6.59458 17.1248 6.39458C17.3248 6.39458 17.3248 6.19458 17.4248 6.09458C17.4248 5.59458 17.3248 5.09458 17.0248 4.79458C16.3248 4.29458 15.3248 4.79458 15.6248 5.79458Z"/>
</symbol></svg>