<svg width="114" height="48" viewBox="0 0 114 48" fill="none" xmlns="http://www.w3.org/2000/svg">
<path d="M110.889 43.0388C115.312 43.9541 111.693 6.52611 110.989 4.08515C108.979 -2.62748 84.1469 1.94931 78.6176 2.35614C65.8498 3.3732 53.283 1.33907 40.8169 1.94931C34.5838 2.25443 5.73056 0.118594 3.11668 3.98344C-1.91001 11.3063 0.402269 30.2238 1.80974 39.6825C-2.21161 40.4961 4.12202 43.9541 4.92629 44.6661C11.2599 46.9036 21.4138 44.4627 28.0491 45.0729C43.5313 46.5985 60.0188 42.8354 75.6015 44.0559C80.1256 45.1746 85.2528 45.0729 89.8773 45.2763C93.396 50.9719 109.682 42.8354 110.889 43.0388C111.392 43.1405 110.788 43.0388 110.889 43.0388Z" fill="black"/>
<path d="M26.2395 25.241C26.139 22.6983 25.7368 20.054 25.7368 17.5113C25.7368 15.3754 26.139 13.2396 25.4352 11.2055C25.4352 11.0021 25.5358 10.7987 25.5358 10.4935C25.7368 9.47647 22.4192 9.985 21.9165 10.9004C21.6149 11.2055 21.4139 11.5106 21.5144 11.8157C21.5144 11.9174 21.6149 12.0191 21.6149 12.0191C21.0117 15.0703 20.1069 18.1215 19.1016 21.071C18.6995 22.1898 18.2973 23.3086 17.8952 24.529C17.292 23.512 16.7893 22.3932 16.2866 21.2744C14.9797 17.9181 13.7733 14.5618 12.1648 11.4089C12.3658 9.88329 9.14875 10.0867 8.44501 11.4089C7.64074 13.0362 7.74127 14.6635 8.04287 16.3925C8.34448 18.3249 8.34447 20.2574 8.44501 22.2915C8.44501 26.1564 8.74661 29.9195 8.84714 33.7843C8.54554 34.1912 8.44501 34.598 8.74661 35.1065C8.94768 35.3099 9.04821 35.5134 9.24928 35.6151C10.1541 36.327 12.5669 35.7168 12.5669 34.3946C12.5669 30.428 12.2653 26.4615 12.1648 22.4949C12.1648 22.0881 12.1648 21.6813 12.1648 21.3761C12.2653 21.4778 12.2653 21.6813 12.3658 21.783C12.969 23.3086 13.5722 24.8342 14.477 26.2581C15.2813 27.682 15.6834 29.2075 16.1861 30.7331C15.985 30.9366 15.8845 31.14 15.985 31.4451C15.985 31.6485 16.0856 31.7502 16.1861 31.7502C16.7893 32.2587 17.8952 32.0553 18.5989 31.7502C18.9005 31.6485 19.1016 31.5468 19.4032 31.3434C19.7048 31.14 20.2075 30.7331 20.1069 30.2246C20.1069 30.1229 20.0064 30.0212 20.0064 29.9195C20.4085 28.699 20.7101 27.3768 20.9112 26.1564C21.2128 24.7325 21.6149 23.512 22.1176 22.1898C22.1176 22.8 22.2181 23.4103 22.2181 24.0205C22.4192 26.4615 22.2181 28.9024 22.2181 31.3434C22.2181 32.157 22.3187 32.869 22.4192 33.6826C22.5197 33.9878 22.7208 35.4117 22.7208 35.5134C22.1176 36.0219 22.3187 36.7338 23.1229 36.9373C24.0277 37.1407 25.1336 36.8355 25.7368 36.2253C26.8427 35.2082 26.34 33.4792 26.0384 32.157C25.7368 30.1229 26.34 27.5802 26.2395 25.241Z" fill="white"/>
<path d="M34.1817 25.9529C34.0811 24.0205 33.4779 22.1898 33.4779 20.2574C33.4779 18.0198 33.679 15.7823 33.3774 13.6464C33.2769 12.9345 29.5571 13.7481 29.6576 14.6635C29.9592 16.6976 29.8587 18.7318 29.8587 20.7659C29.8587 22.6983 30.2608 24.529 30.5624 26.4615C30.864 28.4956 30.4619 30.428 30.663 32.4622C30.7635 33.3775 31.3667 35.1065 30.7635 35.9202C30.3614 36.4287 32.171 36.2253 32.2715 36.2253C32.9753 36.1236 33.9806 35.8185 34.4833 35.2082C35.0865 34.3946 34.6843 32.869 34.5838 31.9536C34.0811 30.0212 34.2822 27.8854 34.1817 25.9529Z" fill="white"/>
<path d="M49.7644 22.6983C47.7537 20.054 44.1345 21.9864 41.6212 21.1727C40.3142 20.7659 40.3142 18.9352 40.3142 17.9181C40.3142 16.4942 40.2137 15.2737 40.0126 13.9516C39.9121 12.9345 40.0126 11.9174 40.7164 11.1038C40.8169 11.0021 41.5206 10.7987 41.5206 10.7987C41.8222 10.6969 42.1238 10.6969 42.526 10.6969C44.034 10.5952 46.9494 10.9004 46.3462 13.1379C46.0446 14.155 49.7644 13.5447 50.066 12.5277C51.2724 8.05257 43.1292 8.96793 40.8169 9.57817C38.7057 10.1884 36.3934 11.4089 36.2929 13.8499C36.1923 15.0703 36.5945 16.1891 36.5945 17.3079C36.695 18.6301 36.3934 19.9522 36.8961 21.2744C37.9014 24.1222 42.1238 22.8 44.3356 23.0034C47.9548 23.3086 46.9495 28.2922 46.9495 30.6314C46.9495 31.8519 48.0553 33.9878 47.1505 35.0048C46.5473 35.6151 45.2404 35.7168 44.5366 35.7168C43.7324 35.8185 42.4254 36.0219 41.9228 35.3099C41.018 33.9878 42.0233 31.6485 41.8222 30.1229C41.7217 29.2076 37.9014 30.0212 38.1025 31.14C38.4041 33.6826 36.7955 37.039 40.4148 37.5475C42.727 37.8526 45.3409 37.3441 47.5527 36.6321C48.6585 36.2253 49.7644 35.7168 50.6692 34.9031C51.6745 33.9878 51.3729 32.6656 51.0713 31.4451C50.2671 28.3939 51.574 25.1393 49.7644 22.6983Z" fill="white"/>
<path d="M66.3525 22.4949C66.252 18.8335 65.6488 15.2737 65.6488 11.6123C65.6488 9.67988 61.8285 10.3918 61.8285 11.9174C61.8285 15.3754 62.3311 18.8335 62.4317 22.2915C62.4317 22.3932 62.4317 22.3932 62.4317 22.4949C60.6221 22.4949 58.7119 22.6983 56.8018 22.6983C57.0028 18.2232 56.1986 13.7481 56.3996 9.37476C56.3996 8.76452 52.6799 9.27305 52.6799 10.3918C52.4788 14.6635 53.2831 19.0369 53.082 23.3086C52.9815 25.3427 52.881 27.3768 52.881 29.5127C52.881 30.5297 53.082 31.6485 53.1826 32.6656C53.2831 33.5809 53.6852 34.9031 53.3836 35.8185C53.1826 36.5304 56.8018 36.1236 57.1034 35.1065C57.606 33.3775 56.9023 31.2417 56.7012 29.5127C56.5002 27.8854 56.7012 26.1563 56.8018 24.4273C58.7119 24.3256 60.7226 24.1222 62.6327 24.4273C62.7333 25.7495 62.8338 27.0717 62.9343 28.3939C63.0349 29.5127 63.1354 30.6314 63.1354 31.7502C63.1354 32.7673 63.2359 34.1912 62.9343 35.1065C62.2306 37.1407 65.9503 36.9373 66.453 35.4117C67.1568 33.5809 66.9557 31.3434 66.8552 29.5127C66.7546 27.2751 66.3525 24.8342 66.3525 22.4949Z" fill="white"/>
<path d="M82.4379 26.8683C81.5331 24.2239 80.1256 21.8847 79.0198 19.342C80.0251 17.4096 80.9299 15.5789 81.8347 13.6464C82.639 11.9174 83.2422 9.985 84.7502 8.76452C85.2529 8.3577 85.2529 7.95087 84.5491 7.84916C83.7448 7.74745 82.5384 8.05257 81.9352 8.56111C80.5278 9.67988 79.623 11.0021 78.9192 12.7311C78.0144 14.6635 77.1096 16.6976 76.1043 18.6301C76.0038 18.7318 76.0037 18.9352 75.9032 19.0369C75.4005 19.342 75.1995 19.7488 75.3 20.2574C74.4957 21.783 73.792 23.3086 72.8872 24.7325C72.5856 19.342 71.9824 14.0533 71.7813 8.66282C71.7813 7.44234 67.961 8.15428 68.0616 9.67988C68.2626 16.2908 69.268 22.9017 69.268 29.5127C68.9664 29.8178 69.0669 30.0212 69.3685 30.1229C69.3685 31.8519 69.268 33.4792 69.1675 35.2082C68.7653 35.9202 69.5696 36.327 70.1728 36.327H70.2733C70.9771 36.327 72.7867 36.0219 72.8872 35.0048C73.0883 32.9707 73.0883 30.9366 73.0883 28.9024C74.5963 27.2751 75.8027 25.4444 76.9086 23.512C77.6123 24.9359 78.316 26.3598 78.8187 27.8854C79.623 30.5297 81.0304 32.9707 81.8347 35.6151C82.3374 37.3441 86.0571 36.327 85.5545 34.598C84.6497 31.9536 83.3427 29.5127 82.4379 26.8683Z" fill="white"/>
<path d="M104.857 22.3932C104.656 21.5796 103.55 21.5796 102.645 21.6813C102.645 21.3761 102.645 21.071 102.645 20.6642C102.545 18.1215 102.444 15.4772 102.243 12.9345C102.042 10.5952 100.735 9.67988 98.4228 9.78159C96.1105 9.88329 93.3961 10.2901 91.2849 11.1038C88.7715 12.1208 87.364 13.9516 86.9619 16.5959C86.4592 19.5454 87.163 22.5966 87.364 25.5461C87.4646 28.9024 87.4646 32.3605 87.4646 35.7168C87.4646 36.2253 91.1843 35.7168 91.1843 34.6997C91.1843 32.0553 91.1843 29.3093 91.1843 26.6649C91.1843 25.8512 91.1843 25.1393 91.0838 24.3256C92.3907 23.7154 94.6025 24.3256 95.9094 24.4273C97.0153 24.529 98.0206 24.2239 99.026 24.1222C99.026 26.3598 99.1265 28.5973 99.227 30.8349C99.227 31.9536 99.7297 34.2929 98.9254 35.2082C98.5233 35.7168 100.333 35.5134 100.433 35.5134C101.238 35.4117 102.143 35.1065 102.645 34.4963C103.55 33.3775 103.047 30.8349 103.047 29.5127C102.947 27.6819 102.947 25.8512 102.947 24.0205C103.852 23.9188 105.058 23.2069 104.857 22.3932ZM90.9833 22.1898C90.8827 20.9693 90.7822 19.7488 90.6817 18.5284C90.4806 16.2908 90.7822 13.1379 92.8934 11.8157C93.4966 11.4089 94.5019 11.5106 95.1051 11.4089C96.0099 11.2055 97.0153 11.0021 97.8196 11.6123C98.9254 12.426 98.7244 15.172 98.7244 16.2908C98.7244 18.2232 98.9254 20.1557 99.026 22.0881C98.5233 22.1898 97.9201 22.1898 97.4174 22.1898C95.2057 22.0881 92.9939 21.783 90.9833 22.1898Z" fill="white"/>
<path d="M30.9646 11.0021C31.4672 11.0021 31.9699 10.7987 32.372 10.4935C32.4726 10.3918 32.5731 10.3918 32.5731 10.2901C33.0758 9.985 33.4779 9.47647 33.2769 8.96793C32.7742 7.95087 32.8747 6.8321 32.8747 5.71332C32.8747 4.79796 31.9699 4.49284 31.1656 4.59455C30.4619 4.69626 29.0544 5.20479 29.0544 6.01844C29.0544 6.9338 28.9539 7.95087 29.155 8.86623C29.155 8.96793 29.0544 9.06964 29.0544 9.17135C28.9539 9.37476 29.0544 9.57817 29.155 9.78159V9.88329C29.155 9.985 29.155 10.0867 29.155 10.1884C29.2555 10.3918 29.356 10.5952 29.5571 10.6969C30.0598 11.0021 30.5624 11.0021 30.9646 11.0021Z" fill="white"/>
</svg>
