<svg width="694" height="25" viewBox="0 0 694 25" fill="none" xmlns="http://www.w3.org/2000/svg">
<path d="M674.784 0C665.142 0 665.142 10.0729 655.567 10.0729C645.992 10.0729 645.925 0 636.35 0C626.776 0 626.709 10.0729 617.134 10.0729C607.492 10.0729 607.492 0 597.85 0C588.209 0 588.209 10.0729 578.634 10.0729C568.992 10.0729 568.992 0 559.417 0C549.776 0 549.776 10.0729 540.201 10.0729C530.626 10.0729 530.358 0 520.783 0C511.142 0 511.142 10.0729 501.567 10.0729C491.992 10.0729 491.858 0 482.283 0C472.642 0 472.642 10.0729 463.067 10.0729C453.425 10.0729 453.425 0 443.783 0C434.142 0 434.142 10.0729 424.567 10.0729C414.925 10.0729 414.925 0 405.35 0C395.776 0 395.642 10.0729 386 10.0729C376.358 10.0729 376.358 0 366.783 0C357.142 0 357.142 10.0729 347.567 10.0729C337.925 10.0729 337.925 0 328.283 0C318.642 0 318.642 10.0729 309.067 10.0729C299.425 10.0729 299.425 0 289.85 0C280.209 0 280.209 10.0729 270.634 10.0729C260.992 10.0729 260.992 0 251.417 0C241.776 0 241.776 10.0729 232.134 10.0729C222.492 10.0729 222.492 0 212.85 0C203.209 0 203.209 10.0729 193.567 10.0729C183.925 10.0729 183.925 0 174.283 0C164.642 0 164.642 10.0729 155 10.0729C145.358 10.0729 145.358 0 135.717 0C126.075 0 126.075 10.0729 116.433 10.0729C106.791 10.0729 106.791 0 97.1496 0C87.5078 0 87.5078 10.0729 77.933 10.0729C68.2913 10.0729 68.2913 0 58.6496 0C49.0078 0 49.0078 10.0729 39.3661 10.0729C29.7243 10.0729 29.7243 0 20.0826 0C10.4409 0 10.4409 10.0729 0.799126 10.0729C-8.84261 10.0729 -8.84261 0 -18.4843 0C-27.8583 0 -27.8583 10.0729 -37.5 10.0729C-47.1417 10.0729 -47.1417 0 -56.7165 0C-66.2913 0 -66.3583 10.0729 -76 10.0729V24.4627H694V10.0729C684.358 10.0729 684.358 0 674.784 0Z" fill="white"/>
</svg>
